# xmcd
#
# Track frame offsets:
#	150
#	17854
#	31397
#
# Disc length: 608 seconds
# Revision: 0
# Processed by: cddbd v1.5.2PL0 Copyright (c) Steve Scherf et al.
# Submitted via: dBpowerAMP V12.0
#
DISCID=1c025e03
DTITLE=Taylor Swift - Love Story [UK CDS]
DYEAR=2008
DGENRE=Country
TTITLE0=Love Story
TTITLE1=Beautiful Eyes
TTITLE2=Love Story [Digital Dog Radio Mix]
EXTD=
EXTT0=
EXTT1=
EXTT2=
PLAYORDER=
